<svg width="156" height="70" viewBox="0 0 156 70" fill="none" xmlns="http://www.w3.org/2000/svg">
<path d="M0.970215 69.058V36.4188C0.970215 36.2423 1.1133 36.0992 1.28981 36.0992L5.05572 36.0992C5.37323 36.0992 5.52959 36.5569 5.30277 36.7791C4.12286 37.9348 2.6673 40.1211 2.6673 43.0127C2.6673 46.44 4.1929 46.9967 6.68292 46.9967H13.1277C21.2715 46.9967 23.5857 42.0166 23.5857 40.1125C23.5857 38.5552 22.5894 37.4139 21.7649 36.6887C21.536 36.4873 21.668 36.0992 21.9729 36.0992H30.8559C31.0324 36.0992 31.1737 36.2421 31.1652 36.4184C31.0881 38.0188 30.3912 40.6568 27.1597 43.4228C25.3116 45.0046 22.5393 46.1459 20.4512 46.8735C20.1055 46.994 20.1884 47.524 20.5545 47.524H25.1823C31.1583 47.524 29.2157 52.2243 28.39 53.8223C27.4819 55.5799 26.4859 57.6158 25.5338 59.5346C23.2202 64.1974 25.9879 65.247 29.2981 66.2431C31.7149 66.9702 31.9413 68.0623 32.0243 69.0312C32.0402 69.2176 31.8927 69.3776 31.7056 69.3776H25.3141C19.0451 69.3776 20.92 64.6612 21.7695 62.9914C22.619 61.3216 22.6923 61.1165 24.655 57.484C26.6177 53.8515 24.655 53.3535 22.7362 53.3535L3.0141 53.3536C2.8376 53.3536 2.69889 53.4954 2.69889 53.6719V60.6186C2.69889 65.2669 4.50932 67.5876 5.85724 68.7486C6.0957 68.954 5.95892 69.3776 5.64419 69.3776H1.28981C1.1133 69.3776 0.970215 69.2345 0.970215 69.058Z" fill="#427E66"/>
<path d="M38.1041 69.3775H33.8617C33.6852 69.3775 33.5421 69.2344 33.5421 69.0579V36.413C33.5421 36.2388 33.6809 36.0967 33.8552 36.0949C34.8468 36.0851 36.613 36.094 38.1133 36.0977C38.423 36.0985 38.5633 36.5124 38.3348 36.7214C35.9591 38.8951 35.2414 41.9846 35.2414 44.0087V46.6821C35.2414 46.8586 35.3845 47.0014 35.561 47.0014H61.3453C61.5218 47.0014 61.6649 47.1916 61.6649 47.0151V44.0087C61.6649 40.8995 59.7445 38.1179 58.4133 36.6828C58.2145 36.4684 58.3636 36.0992 58.6559 36.0992L62.8686 36.0992C63.0451 36.0992 63.1882 36.2423 63.1882 36.4188V69.0579C63.1882 69.2344 63.0451 69.3775 62.8686 69.3775H58.6118C58.3235 69.3775 58.183 69.0273 58.3878 68.8244C59.7538 67.4717 61.6649 65.2039 61.6649 61.2337V53.6924C61.6649 53.5159 61.5218 53.3742 61.3453 53.3742H35.561C35.3845 53.3742 35.2414 53.5166 35.2414 53.6931V61.2337C35.2414 64.6522 37.0394 67.3853 38.3481 68.7681C38.5539 68.9856 38.4035 69.3775 38.1041 69.3775Z" fill="#427E66"/>
<path d="M69.0963 36.0992H65.6729C65.4767 36.0992 65.3178 36.2512 65.3178 36.4473V69.0264C65.3178 69.2225 65.4806 69.3776 65.6767 69.376C73.9737 69.3055 77.0916 66.7183 81.0195 54.3638C84.0877 44.713 89.7551 42.3006 92.4911 42.468C92.6673 42.4787 92.7958 42.6253 92.7958 42.8019V62.9346C92.7958 65.409 91.4289 67.513 90.3457 68.6918C90.1201 68.9372 90.2899 69.3775 90.6232 69.3775H94.0812C94.2773 69.3775 94.4363 69.2255 94.4363 69.0293V36.4538C94.4363 36.2577 94.2772 36.0987 94.0812 36.1029C89.1034 36.2099 84.1643 38.667 80.5507 51.8812C78.0283 61.1053 72.901 62.97 67.3721 63.0441C67.176 63.0467 67.0168 62.8898 67.0168 62.6937V44.1971C67.0168 40.7388 68.256 38.1942 69.4015 36.8579C69.6263 36.5956 69.4418 36.0992 69.0963 36.0992Z" fill="#427E66"/>
<path d="M130.267 36.0992H126.844C126.648 36.0992 126.489 36.2512 126.489 36.4473V69.0264C126.489 69.2225 126.652 69.3776 126.848 69.376C135.145 69.3055 138.263 66.7183 142.19 54.3638C145.259 44.713 150.926 42.3074 153.662 42.4753C153.838 42.4861 153.967 42.6326 153.967 42.8092V62.9346C153.967 65.409 152.6 67.513 151.517 68.6918C151.291 68.9372 151.461 69.3775 151.794 69.3775H155.252C155.448 69.3775 155.607 69.2255 155.607 69.0293V36.4538C155.607 36.2577 155.448 36.0987 155.252 36.1029C150.274 36.2099 145.335 38.667 141.722 51.8812C139.199 61.1053 134.072 62.97 128.543 63.0441C128.347 63.0467 128.188 62.8898 128.188 62.6937V44.1971C128.188 40.7388 129.427 38.1942 130.572 36.8579C130.797 36.5956 130.613 36.0992 130.267 36.0992Z" fill="#427E66"/>
<path d="M96.2879 36.4543V69.0225C96.2879 69.2186 96.4469 69.3776 96.6431 69.3776H100.093C100.423 69.3776 100.59 68.9506 100.373 68.7032C99.2388 67.4155 97.9451 65.0704 97.9451 61.2812V42.285C97.9451 42.0889 98.1003 41.9333 98.2964 41.9333H118.305C120.938 41.9333 122.896 42.8343 123.962 43.5777C124.224 43.7603 124.637 43.5773 124.637 43.2581V36.4543C124.637 36.2582 124.478 36.0992 124.282 36.0992H96.6431C96.4469 36.0992 96.2879 36.2582 96.2879 36.4543Z" fill="#427E66"/>
<path fill-rule="evenodd" clip-rule="evenodd" d="M55.2194 28.4678V7.6134C55.2194 0.984725 51.3133 0.00817871 48.5316 0.00817871C40.7192 0.00817871 32.8477 5.66031 31.0721 13.887C29.732 20.0961 28.5149 26.4261 28.1164 28.199C28.0806 28.3585 27.9388 28.4678 27.7754 28.4678H23.674C23.4779 28.4678 23.3189 28.6267 23.3189 28.8229V33.8536C23.3189 34.0497 23.4779 34.2087 23.674 34.2087H58.1278C58.3239 34.2087 58.4829 34.0497 58.4829 33.8536V28.8229C58.4829 28.6267 58.3239 28.4678 58.1278 28.4678H55.2194ZM53.3255 28.4678H30.1499C29.9239 28.4678 29.7546 28.2625 29.8009 28.0413C30.2551 25.8749 31.5612 19.4931 32.2337 16.6177C33.2158 12.4188 36.6947 6.75522 49.4194 6.75522C51.9051 6.75522 53.3255 7.64299 53.3255 10.2471V28.4678Z" fill="#427E66"/>
<path fill-rule="evenodd" clip-rule="evenodd" d="M93.2837 16.325C93.2836 16.3724 93.2834 16.4152 93.2834 16.4533C93.2834 16.5385 93.2857 16.6502 93.2884 16.7858C93.3484 19.7559 93.6404 34.2087 75.528 34.2087C58.8981 34.2087 58.4829 20.0636 58.4829 17.1043C58.4829 14.1451 59.844 -3.05176e-05 75.528 -3.05176e-05C93.3437 -3.05176e-05 93.2925 13.9407 93.2837 16.325ZM91.9823 16.4533C91.9823 10.8899 87.3659 5.97761 75.528 5.97761C64.5779 5.97761 59.7858 11.7777 59.7858 17.1043C59.7858 22.4309 62.7451 28.231 75.528 28.231C88.311 28.231 91.9823 22.0166 91.9823 16.4533Z" fill="#427E66"/>
<path d="M105.431 34.2088H93.7095C93.4927 34.2088 93.3265 34.0163 93.3582 33.8018L97.1451 8.14168C97.5594 5.43891 98.5063 0.0333862 103.419 0.0333862C108.043 0.0333862 108.746 2.89357 110.166 6.66206L114.862 19.2252L119.665 6.66206C120.355 4.4525 121.943 0.0333862 126.027 0.0333862C130.674 0.0333862 131.65 4.4525 132.182 6.66206L136.206 33.8016C136.238 34.0161 136.071 34.2088 135.854 34.2088H124.423C124.254 34.2088 124.106 34.0902 124.105 33.9215C124.097 33.0547 124.715 31.5262 127.329 30.5985C130.265 29.5569 133.735 28.6608 133.07 24.2066L130.999 10.2723C130.821 8.87162 130.011 6.07022 126.027 6.07022C122.043 6.07022 120.689 9.20562 120.058 10.7247L115.804 21.7455L119.626 31.9714C120.031 33.0545 119.23 34.2088 118.074 34.2088H111.541C110.379 34.2088 109.578 33.0448 109.993 31.9598L113.901 21.7378L109.749 10.2723C109.276 8.87162 107.842 6.07022 103.419 6.07022C99.6782 6.07022 98.5853 8.87162 98.5063 10.2723L96.3757 24.2066C96.1981 25.7848 96.8373 29.1781 100.815 30.125C104.363 30.9698 105.537 32.7881 105.749 33.857C105.787 34.0493 105.627 34.2088 105.431 34.2088Z" fill="#427E66"/>
</svg>
